<?xml version="1.0" encoding="UTF-8" standalone="no"?>
<!-- Generator: Adobe Illustrator 16.0.4, SVG Export Plug-In . SVG Version: 6.00 Build 0)  -->

<svg
   xmlns:dc="http://purl.org/dc/elements/1.1/"
   xmlns:cc="http://creativecommons.org/ns#"
   xmlns:rdf="http://www.w3.org/1999/02/22-rdf-syntax-ns#"
   xmlns:svg="http://www.w3.org/2000/svg"
   xmlns="http://www.w3.org/2000/svg"
   xmlns:sodipodi="http://sodipodi.sourceforge.net/DTD/sodipodi-0.dtd"
   xmlns:inkscape="http://www.inkscape.org/namespaces/inkscape"
   version="1.1"
   id="Layer_1"
   x="0px"
   y="0px"
   width="324px"
   height="11px"
   viewBox="1.145 0.538 324 11"
   enable-background="new 1.145 0.538 324 11"
   xml:space="preserve"
   inkscape:version="0.91 r13725"
   sodipodi:docname="brand-alt.svg"><metadata
     id="metadata75"><rdf:RDF><cc:Work
         rdf:about=""><dc:format>image/svg+xml</dc:format><dc:type
           rdf:resource="http://purl.org/dc/dcmitype/StillImage" /><dc:title></dc:title></cc:Work></rdf:RDF></metadata><defs
     id="defs73" /><sodipodi:namedview
     pagecolor="#ffffff"
     bordercolor="#666666"
     borderopacity="1"
     objecttolerance="10"
     gridtolerance="10"
     guidetolerance="10"
     inkscape:pageopacity="0"
     inkscape:pageshadow="2"
     inkscape:window-width="1600"
     inkscape:window-height="834"
     id="namedview71"
     showgrid="false"
     inkscape:zoom="1.737213"
     inkscape:cx="48.765737"
     inkscape:cy="-22.392872"
     inkscape:window-x="0"
     inkscape:window-y="27"
     inkscape:window-maximized="1"
     inkscape:current-layer="text4203" /><g
     id="g3"><g
       id="g49"><g
         transform="scale(0.87298741,1.1454919)"
         style="font-style:normal;font-weight:normal;font-size:12.58312607px;line-height:150%;font-family:Sans;letter-spacing:0px;word-spacing:0.15818788px;fill:#000000;fill-opacity:1;stroke:#ffffff;stroke-width:0.5;stroke-linecap:butt;stroke-linejoin:miter;stroke-miterlimit:4;stroke-dasharray:none;stroke-opacity:1"
         id="text4203"><path
           d="m 8.6769245,0.95519967 0,1.94153703 Q 7.9211996,2.558811 7.2023394,2.386776 6.4834792,2.2147411 5.8444923,2.2147411 q -0.8478864,0 -1.2533973,0.233476 -0.4055109,0.2334759 -0.4055109,0.7250043 0,0.3686463 0.2703406,0.5775458 0.2764847,0.2027555 0.9953449,0.350214 l 1.0076332,0.2027554 q 1.529882,0.3072053 2.175013,0.9339039 0.6451309,0.6266987 0.6451309,1.7817903 0,1.5175939 -0.9031833,2.2610305 -0.8970393,0.7372927 -2.7464147,0.7372927 -0.8724629,0 -1.7510698,-0.165891 Q 2.9997719,9.6859722 2.121165,9.3603347 l 0,-1.996834 q 0.8786069,0.4669519 1.6957728,0.706572 0.82331,0.233476 1.585179,0.233476 0.7741572,0 1.1858122,-0.2580524 0.411655,-0.2580524 0.411655,-0.7372926 0,-0.4300873 -0.2826288,-0.6635632 Q 6.4404705,6.4111645 5.6048722,6.2268414 L 4.6894007,6.0240859 Q 3.3131213,5.7291689 2.6741344,5.0840379 2.0412916,4.4389069 2.0412916,3.3452563 q 0,-1.3701353 0.8847511,-2.1074278 0.884751,-0.73729256 2.5436592,-0.73729256 0.7557249,0 1.5544585,0.11673798 0.7987336,0.11059388 1.6527641,0.33792575 z"
           style="font-style:normal;font-variant:normal;font-weight:bold;font-stretch:normal;font-family:Sans;-inkscape-font-specification:'Sans Bold';stroke:#ffffff;stroke-width:0.5;stroke-miterlimit:4;stroke-dasharray:none;stroke-opacity:1;fill:#ffffff;fill-opacity:1"
           id="path4138" /><path
           d="m 20.068972,5.1577672 3.182647,4.6818076 -2.463786,0 -2.144293,-3.1334933 -2.12586,3.1334933 -2.476074,0 3.182646,-4.6818076 -3.059764,-4.49134044 2.46993,0 2.009122,2.95531424 2.002978,-2.95531424 2.482218,0 -3.059764,4.49134044 z"
           style="font-style:normal;font-variant:normal;font-weight:bold;font-stretch:normal;font-family:Sans;-inkscape-font-specification:'Sans Bold';stroke:#ffffff;stroke-width:0.5;stroke-miterlimit:4;stroke-dasharray:none;stroke-opacity:1;fill:#ffffff;fill-opacity:1"
           id="path4140" /><path
           d="m 33.8265,8.1683784 -3.698751,0 -0.58369,1.6711964 -2.377768,0 3.39769,-9.17314804 2.820144,0 3.397689,9.17314804 -2.377768,0 L 33.8265,8.1683784 Z m -3.108917,-1.701917 2.512939,0 -1.253397,-3.6495981 -1.259542,3.6495981 z"
           style="font-style:normal;font-variant:normal;font-weight:bold;font-stretch:normal;font-family:Sans;-inkscape-font-specification:'Sans Bold';stroke:#ffffff;stroke-width:0.5;stroke-miterlimit:4;stroke-dasharray:none;stroke-opacity:1;fill:#ffffff;fill-opacity:1"
           id="path4142" /><path
           d="m 41.587382,0.66642676 3.926083,0 q 1.751069,0 2.684973,0.78030124 0.940048,0.7741572 0.940048,2.2118777 0,1.4438645 -0.940048,2.2241658 -0.933904,0.7741572 -2.684973,0.7741572 l -1.560603,0 0,3.1826461 -2.36548,0 0,-9.17314804 z m 2.36548,1.71420514 0,2.5620916 1.308694,0 q 0.68814,0 1.06293,-0.3317816 0.374791,-0.3379258 0.374791,-0.9523362 0,-0.6144105 -0.374791,-0.9461921 -0.37479,-0.3317817 -1.06293,-0.3317817 l -1.308694,0 z"
           style="font-style:normal;font-variant:normal;font-weight:bold;font-stretch:normal;font-family:Sans;-inkscape-font-specification:'Sans Bold';stroke:#ffffff;stroke-width:0.5;stroke-miterlimit:4;stroke-dasharray:none;stroke-opacity:1;fill:#ffffff;fill-opacity:1"
           id="path4144" /><path
           d="m 54.398718,0.66642676 2.36548,0 0,9.17314804 -2.36548,0 0,-9.17314804 z"
           style="font-style:normal;font-variant:normal;font-weight:bold;font-stretch:normal;font-family:Sans;-inkscape-font-specification:'Sans Bold';stroke:#ffffff;stroke-width:0.5;stroke-miterlimit:4;stroke-dasharray:none;stroke-opacity:1;fill:#ffffff;fill-opacity:1"
           id="path4146" /><path
           d="m 70.527187,0.66642676 1.849375,0 2.340904,6.24241024 2.353192,-6.24241024 1.849376,0 0,9.17314804 -1.210389,0 0,-8.054921 -2.36548,6.291563 -1.247253,0 -2.36548,-6.291563 0,8.054921 -1.204245,0 0,-9.17314804 z"
           style="letter-spacing:3.59517908px;fill:#ffffff;fill-opacity:1;stroke:#ffffff;stroke-width:0.5;stroke-miterlimit:4;stroke-dasharray:none;stroke-opacity:1"
           id="path4148" /><path
           d="m 88.051057,1.8891036 -1.683484,4.5650696 3.373113,0 -1.689629,-4.5650696 z m -0.700428,-1.22267684 1.407,0 3.495996,9.17314804 -1.290262,0 -0.835598,-2.353192 -4.134983,0 -0.835598,2.353192 -1.308694,0 3.502139,-9.17314804 z"
           style="letter-spacing:3.59517908px;fill:#ffffff;fill-opacity:1;stroke:#ffffff;stroke-width:0.5;stroke-miterlimit:4;stroke-dasharray:none;stroke-opacity:1"
           id="path4150" /><path
           d="m 97.182071,0.66642676 1.671197,0 4.067392,7.67398654 0,-7.67398654 1.20425,0 0,9.17314804 -1.6712,0 -4.067394,-7.6739865 0,7.6739865 -1.204245,0 0,-9.17314804 z"
           style="letter-spacing:3.59517908px;fill:#ffffff;fill-opacity:1;stroke:#ffffff;stroke-width:0.5;stroke-miterlimit:4;stroke-dasharray:none;stroke-opacity:1"
           id="path4152" /><path
           d="m 113.25593,1.8891036 -1.68349,4.5650696 3.37312,0 -1.68963,-4.5650696 z m -0.70043,-1.22267684 1.407,0 3.496,9.17314804 -1.29027,0 -0.83559,-2.353192 -4.13499,0 -0.83559,2.353192 -1.3087,0 3.50214,-9.17314804 z"
           style="letter-spacing:3.59517908px;fill:#ffffff;fill-opacity:1;stroke:#ffffff;stroke-width:0.5;stroke-miterlimit:4;stroke-dasharray:none;stroke-opacity:1"
           id="path4154" /><path
           d="m 128.42046,8.5308805 0,-2.4637859 -2.02756,0 0,-1.0199213 3.25638,0 0,3.938371 q -0.71886,0.5099607 -1.58518,0.7741572 -0.86632,0.2580525 -1.84938,0.2580525 -2.15043,0 -3.36696,-1.2533975 -1.21039,-1.2595414 -1.21039,-3.5021396 0,-2.2487422 1.21039,-3.5021395 1.21653,-1.25954146 3.36696,-1.25954146 0.89704,0 1.70192,0.22118776 0.81102,0.22118776 1.49302,0.6512751 l 0,1.3209825 q -0.68814,-0.58369 -1.4623,-0.878607 -0.77416,-0.294917 -1.62819,-0.294917 -1.68348,0 -2.53137,0.940048 -0.84174,0.940048 -0.84174,2.8017116 0,1.8555196 0.84174,2.7955676 0.84789,0.940048 2.53137,0.940048 0.65742,0 1.17353,-0.1105939 0.5161,-0.116738 0.92776,-0.3563581 z"
           style="letter-spacing:3.59517908px;fill:#ffffff;fill-opacity:1;stroke:#ffffff;stroke-width:0.5;stroke-miterlimit:4;stroke-dasharray:none;stroke-opacity:1"
           id="path4156" /><path
           d="m 135.51777,0.66642676 5.80004,0 0,1.04449774 -4.55893,0 0,2.7156942 4.36846,0 0,1.0444978 -4.36846,0 0,3.3239605 4.66952,0 0,1.0444978 -5.91063,0 0,-9.17314804 z"
           style="letter-spacing:3.59517908px;fill:#ffffff;fill-opacity:1;stroke:#ffffff;stroke-width:0.5;stroke-miterlimit:4;stroke-dasharray:none;stroke-opacity:1"
           id="path4158" /><path
           d="m 147.07571,0.66642676 1.84938,0 2.3409,6.24241024 2.35319,-6.24241024 1.84938,0 0,9.17314804 -1.21039,0 0,-8.054921 -2.36548,6.291563 -1.24726,0 -2.36548,-6.291563 0,8.054921 -1.20424,0 0,-9.17314804 z"
           style="letter-spacing:3.59517908px;fill:#ffffff;fill-opacity:1;stroke:#ffffff;stroke-width:0.5;stroke-miterlimit:4;stroke-dasharray:none;stroke-opacity:1"
           id="path4160" /><path
           d="m 161.53367,0.66642676 5.80004,0 0,1.04449774 -4.55893,0 0,2.7156942 4.36846,0 0,1.0444978 -4.36846,0 0,3.3239605 4.66952,0 0,1.0444978 -5.91063,0 0,-9.17314804 z"
           style="letter-spacing:3.59517908px;fill:#ffffff;fill-opacity:1;stroke:#ffffff;stroke-width:0.5;stroke-miterlimit:4;stroke-dasharray:none;stroke-opacity:1"
           id="path4162" /><path
           d="m 173.09161,0.66642676 1.6712,0 4.06739,7.67398654 0,-7.67398654 1.20425,0 0,9.17314804 -1.6712,0 -4.0674,-7.6739865 0,7.6739865 -1.20424,0 0,-9.17314804 z"
           style="letter-spacing:3.59517908px;fill:#ffffff;fill-opacity:1;stroke:#ffffff;stroke-width:0.5;stroke-miterlimit:4;stroke-dasharray:none;stroke-opacity:1"
           id="path4164" /><path
           d="m 184.82773,0.66642676 7.76,0 0,1.04449774 -3.25637,0 0,8.1286503 -1.24725,0 0,-8.1286503 -3.25638,0 0,-1.04449774 z"
           style="letter-spacing:3.59517908px;fill:#ffffff;fill-opacity:1;stroke:#ffffff;stroke-width:0.5;stroke-miterlimit:4;stroke-dasharray:none;stroke-opacity:1"
           id="path4166" /><path
           d="m 212.01559,1.3729988 0,1.3086942 q -0.6267,-0.5836899 -1.33942,-0.8724628 -0.70657,-0.2887729 -1.5053,-0.2887729 -1.57289,0 -2.40849,0.9646244 -0.8356,0.9584803 -0.8356,2.7771352 0,1.8125109 0.8356,2.7771353 0.8356,0.9584803 2.40849,0.9584803 0.79873,0 1.5053,-0.2887729 0.71272,-0.2887729 1.33942,-0.8724629 l 0,1.2964061 q -0.65128,0.4423755 -1.38242,0.6635633 -0.72501,0.2211879 -1.53603,0.2211879 -2.08285,0 -3.28095,-1.2718298 -1.1981,-1.2779737 -1.1981,-3.4837073 0,-2.2118776 1.1981,-3.4837072 1.1981,-1.27797376 3.28095,-1.27797376 0.82331,0 1.54831,0.22118776 0.73115,0.21504366 1.37014,0.6512751 z"
           style="letter-spacing:3.59517908px;fill:#ffffff;fill-opacity:1;stroke:#ffffff;stroke-width:0.5;stroke-miterlimit:4;stroke-dasharray:none;stroke-opacity:1"
           id="path4168" /><path
           d="m 221.26335,1.5081691 q -1.35171,0 -2.15044,1.0076331 -0.79259,1.0076332 -0.79259,2.7464147 0,1.7326375 0.79259,2.7402707 0.79873,1.0076331 2.15044,1.0076331 1.3517,0 2.13815,-1.0076331 0.79258,-1.0076332 0.79258,-2.7402707 0,-1.7387815 -0.79258,-2.7464147 -0.78645,-1.0076331 -2.13815,-1.0076331 z m 0,-1.00763316 q 1.92925,0 3.08434,1.29640606 1.15509,1.2902619 1.15509,3.4652749 0,2.1688689 -1.15509,3.465275 -1.15509,1.2902621 -3.08434,1.2902621 -1.9354,0 -3.09663,-1.2902621 -1.15509,-1.290262 -1.15509,-3.465275 0,-2.175013 1.15509,-3.4652749 1.16123,-1.29640606 3.09663,-1.29640606 z"
           style="letter-spacing:3.59517908px;fill:#ffffff;fill-opacity:1;stroke:#ffffff;stroke-width:0.5;stroke-miterlimit:4;stroke-dasharray:none;stroke-opacity:1"
           id="path4170" /><path
           d="m 231.03949,0.66642676 1.67119,0 4.0674,7.67398654 0,-7.67398654 1.20424,0 0,9.17314804 -1.67119,0 -4.0674,-7.6739865 0,7.6739865 -1.20424,0 0,-9.17314804 z"
           style="letter-spacing:3.59517908px;fill:#ffffff;fill-opacity:1;stroke:#ffffff;stroke-width:0.5;stroke-miterlimit:4;stroke-dasharray:none;stroke-opacity:1"
           id="path4172" /><path
           d="m 249.54641,0.96748788 0,1.21038862 q -0.70657,-0.3379258 -1.33327,-0.5038166 -0.6267,-0.1658908 -1.21039,-0.1658908 -1.01378,0 -1.56675,0.3932227 -0.54682,0.3932227 -0.54682,1.118227 0,0.6082663 0.3625,0.9216157 0.36865,0.3072052 1.38857,0.4976724 l 0.74958,0.1536026 q 1.38857,0.2641965 2.04599,0.9339039 0.66356,0.6635633 0.66356,1.7817903 0,1.3332707 -0.89704,2.0214104 -0.8909,0.6881399 -2.61739,0.6881399 -0.65127,0 -1.38857,-0.1474587 -0.73115,-0.1474585 -1.51759,-0.4362314 l 0,-1.2779737 q 0.75572,0.4239432 1.48073,0.6389868 0.725,0.2150437 1.42543,0.2150437 1.06293,0 1.64048,-0.4177991 0.57754,-0.4177991 0.57754,-1.1919563 0,-0.6758515 -0.4178,-1.056786 -0.41165,-0.3809344 -1.35784,-0.5714017 L 246.2716,5.6247191 q -1.38857,-0.2764847 -2.00912,-0.8663187 -0.62056,-0.5898341 -0.62056,-1.6404759 0,-1.2165327 0.85404,-1.9169606 0.86017,-0.70042796 2.36548,-0.70042796 0.64513,0 1.31483,0.11673798 0.66971,0.11673799 1.37014,0.35021396 z"
           style="letter-spacing:3.59517908px;fill:#ffffff;fill-opacity:1;stroke:#ffffff;stroke-width:0.5;stroke-miterlimit:4;stroke-dasharray:none;stroke-opacity:1"
           id="path4174" /><path
           d="m 259.35328,1.5081691 q -1.3517,0 -2.15043,1.0076331 -0.79259,1.0076332 -0.79259,2.7464147 0,1.7326375 0.79259,2.7402707 0.79873,1.0076331 2.15043,1.0076331 1.35171,0 2.13815,-1.0076331 0.79259,-1.0076332 0.79259,-2.7402707 0,-1.7387815 -0.79259,-2.7464147 -0.78644,-1.0076331 -2.13815,-1.0076331 z m 0,-1.00763316 q 1.92925,0 3.08434,1.29640606 1.15509,1.2902619 1.15509,3.4652749 0,2.1688689 -1.15509,3.465275 -1.15509,1.2902621 -3.08434,1.2902621 -1.93539,0 -3.09663,-1.2902621 -1.15509,-1.290262 -1.15509,-3.465275 0,-2.175013 1.15509,-3.4652749 1.16124,-1.29640606 3.09663,-1.29640606 z"
           style="letter-spacing:3.59517908px;fill:#ffffff;fill-opacity:1;stroke:#ffffff;stroke-width:0.5;stroke-miterlimit:4;stroke-dasharray:none;stroke-opacity:1"
           id="path4176" /><path
           d="m 269.12942,0.66642676 1.24111,0 0,8.12865024 4.46676,0 0,1.0444978 -5.70787,0 0,-9.17314804 z"
           style="letter-spacing:3.59517908px;fill:#ffffff;fill-opacity:1;stroke:#ffffff;stroke-width:0.5;stroke-miterlimit:4;stroke-dasharray:none;stroke-opacity:1"
           id="path4178" /><path
           d="m 279.72888,0.66642676 5.80003,0 0,1.04449774 -4.55892,0 0,2.7156942 4.36846,0 0,1.0444978 -4.36846,0 0,3.3239605 4.66952,0 0,1.0444978 -5.91063,0 0,-9.17314804 z"
           style="letter-spacing:3.59517908px;fill:#ffffff;fill-opacity:1;stroke:#ffffff;stroke-width:0.5;stroke-miterlimit:4;stroke-dasharray:none;stroke-opacity:1"
           id="path4180" /></g></g></g></svg>