<?xml version="1.0" encoding="UTF-8" standalone="no"?>
<!-- Generator: Adobe Illustrator 16.0.4, SVG Export Plug-In . SVG Version: 6.00 Build 0)  -->

<svg
   xmlns:dc="http://purl.org/dc/elements/1.1/"
   xmlns:cc="http://creativecommons.org/ns#"
   xmlns:rdf="http://www.w3.org/1999/02/22-rdf-syntax-ns#"
   xmlns:svg="http://www.w3.org/2000/svg"
   xmlns="http://www.w3.org/2000/svg"
   xmlns:sodipodi="http://sodipodi.sourceforge.net/DTD/sodipodi-0.dtd"
   xmlns:inkscape="http://www.inkscape.org/namespaces/inkscape"
   version="1.1"
   id="Layer_1"
   x="0px"
   y="0px"
   width="37px"
   height="35px"
   viewBox="0 0 37 35"
   enable-background="new 0 0 37 35"
   xml:space="preserve"
   inkscape:version="0.91 r13725"
   sodipodi:docname="logo-alt.svg"><metadata
     id="metadata14"><rdf:RDF><cc:Work
         rdf:about=""><dc:format>image/svg+xml</dc:format><dc:type
           rdf:resource="http://purl.org/dc/dcmitype/StillImage" /></cc:Work></rdf:RDF></metadata><defs
     id="defs12" /><sodipodi:namedview
     pagecolor="#ffffff"
     bordercolor="#666666"
     borderopacity="1"
     objecttolerance="10"
     gridtolerance="10"
     guidetolerance="10"
     inkscape:pageopacity="0"
     inkscape:pageshadow="2"
     inkscape:window-width="1600"
     inkscape:window-height="834"
     id="namedview10"
     showgrid="false"
     inkscape:zoom="9.53584"
     inkscape:cx="21.140375"
     inkscape:cy="19.654634"
     inkscape:window-x="0"
     inkscape:window-y="27"
     inkscape:window-maximized="1"
     inkscape:current-layer="Layer_1" /><linearGradient
     id="SVGID_1_"
     gradientUnits="userSpaceOnUse"
     x1="231.8955"
     y1="-269.5547"
     x2="231.8955"
     y2="-301.7199"
     gradientTransform="matrix(1 0 0 -1 -213.5 -268.5)"><stop
       offset="0"
       style="stop-color:#60EFFF"
       id="stop4" /><stop
       offset="1"
       style="stop-color:#1F89C7"
       id="stop6" /></linearGradient><g
     transform="matrix(0.15510851,0,0,0.15510851,1.963187,-0.13971084)"
     id="g4161"><rect
       y="1.6366946"
       x="0.67983073"
       height="225.38602"
       width="210.91208"
       id="rect621"
       style="font-size:12px;fill:#ffffff;fill-rule:evenodd;stroke:none" /><path
       inkscape:connector-curvature="0"
       inkscape:label="#logoGreen"
       sodipodi:nodetypes="ccccccc"
       id="logoGreen"
       d="m 11.437496,11.975078 0,203.962852 59.714907,0 C 90.753481,204.10792 122.25938,182.19532 122.87706,156.01117 123.5991,123.55329 64.364252,116.56025 63.514099,78.600489 62.880504,53.046556 72.960764,30.148689 117.15678,11.975078 Z"
       style="fill:#0c6f5e;fill-opacity:1;fill-rule:evenodd;stroke:none" /><path
       inkscape:connector-curvature="0"
       id="logoBlue"
       d="m 124.14823,11.975078 c -19.07463,12.239744 -40.707845,27.58215 -40.707815,49.938969 -1.051344,32.590834 68.332705,35.20569 67.281405,87.771533 -1.01638,32.86264 -38.48162,54.80259 -66.131294,66.25235 l 116.039994,0 0,-203.962852 -76.48229,0 z m 63.52843,11.470832 -27.36051,33.655841 25.75641,34.17036 -32.56627,-28.934334 -23.15352,16.82792 17.37272,-23.637786 -19.46107,-26.301185 25.24187,21.034903 34.17037,-26.815719 z"
       style="fill:#000e44;fill-opacity:1;fill-rule:evenodd;stroke:none" /></g></svg>